{"title":"Rust.and.Bone.2012.FRENCH.BDRip.AC3.HORiZON-ArtSubs","uid":7803675,"size":1569232290,"categoryP":"video","categoryS":"movies","magnet":"?xt=urn:btih:6f6b7c465aa9d85eeebf25f6cc6ba8edb9ddb5f4&amp;dn=Rust.and.Bone.2012.FRENCH.BDRip.AC3.HORiZON-ArtSubs&amp;tr=udp%3A%2F%2Ftracker.openbittorrent.com%3A80&amp;tr=udp%3A%2F%2Fopen.demonii.com%3A1337&amp;tr=udp%3A%2F%2Ftracker.coppersurfer.tk%3A6969&amp;tr=udp%3A%2F%2Fexodus.desync.com%3A6969","seeders":6,"leechers":0,"uploader":"lletaif","files":3,"time":1352345087,"description":"\nDirector:\nJacques Audiard\n\nWriters:\nJacques Audiard (screenplay), Thomas Bidegain (screenplay)\n\nStars:\nMarion Cotillard, Matthias Schoenaerts and Armand Verdure \n\nPlot:Put in charge of his young son, Ali leaves Belgium for Antibes to live with his sister and her husband as a family. Ali's bond with Stephanie, a killer whale trainer, grows deeper after Stephanie suffers a horrible accident. \n\nGeneral\nComplete name                    : Rust.and.Bone.2012.FRENCH.BDRip.AC3.HORiZON-ArtSubs.avi\nFormat                           : AVI\nFormat/Info                      : Audio Video Interleave\nFile size                        : 1.46 GiB\nDuration                         : 2h 2mn\nOverall bit rate                 : 1 713 Kbps\nWriting application              : FairUse Wizard - http://fairusewizard.com\nWriting library                  : The best and REALLY easy backup tool\n\nVideo\nID                               : 0\nFormat                           : MPEG-4 Visual\nFormat profile                   : Advanced Simple@L5\nFormat settings, BVOP            : 1\nFormat settings, QPel            : No\nFormat settings, GMC             : No warppoints\nFormat settings, Matrix          : Default (MPEG)\nMuxing mode                      : Packed bitstream\nCodec ID                         : XVID\nCodec ID/Hint                    : XviD\nDuration                         : 2h 2mn\nBit rate                         : 1 255 Kbps\nWidth                            : 704 pixels\nHeight                           : 288 pixels\nDisplay aspect ratio             : 2.40:1\nFrame rate                       : 23.976 fps\nColor space                      : YUV\nChroma subsampling               : 4:2:0\nBit depth                        : 8 bits\nScan type                        : Progressive\nCompression mode                 : Lossy\nBits/(Pixel*Frame)               : 0.258\nStream size                      : 1.07 GiB (73%)\nWriting library                  : XviD 1.2.0.dev47 (UTC 2006-11-01)\n\nAudio\nID                               : 1\nFormat                           : AC-3\nFormat/Info                      : Audio Coding 3\nMode extension                   : CM (complete main)\nCodec ID                         : 2000\nDuration                         : 2h 2mn\nBit rate mode                    : Constant\nBit rate                         : 448 Kbps\nChannel(s)                       : 6 channels\nChannel positions                : Front: L C R, Side: L R, LFE\nSampling rate                    : 48.0 KHz\nBit depth                        : 16 bits\nCompression mode                 : Lossy\nStream size                      : 391 MiB (26%)\nAlignment                        : Split accross interleaves\nInterleave, duration             : 42 ms (1.00 video frame)\nInterleave, preload duration     : 500 ms\n\n","torrent":{"xt":"urn:btih:6f6b7c465aa9d85eeebf25f6cc6ba8edb9ddb5f4","amp;dn":"Rust.and.Bone.2012.FRENCH.BDRip.AC3.HORiZON-ArtSubs","amp;tr":["udp%3A%2F%2Ftracker.openbittorrent.com%3A80","udp%3A%2F%2Fopen.demonii.com%3A1337","udp%3A%2F%2Ftracker.coppersurfer.tk%3A6969","udp%3A%2F%2Fexodus.desync.com%3A6969"],"infoHash":"6f6b7c465aa9d85eeebf25f6cc6ba8edb9ddb5f4","infoHashBuffer":{"type":"Buffer","data":[111,107,124,70,90,169,216,94,238,191,37,246,204,107,168,237,185,221,181,244]},"announce":[],"urlList":[]}}